HIERARCHY
ROOT Hips
{
	OFFSET 0.00000 0.00000 0.00000
	CHANNELS 6 Xposition Yposition Zposition Zrotation Yrotation Xrotation 
	JOINT LHipJoint
	{
		OFFSET 0 0 0
		CHANNELS 3 Zrotation Yrotation Xrotation
		JOINT LeftHip
		{
			OFFSET 1.57338 -1.94743 0.52196
			CHANNELS 3 Zrotation Yrotation Xrotation
			JOINT LeftKnee
			{
				OFFSET 2.60333 -7.15259 0.00000
				CHANNELS 3 Zrotation Yrotation Xrotation
				JOINT LeftAnkle
				{
					OFFSET 2.77855 -7.63400 0.00000
					CHANNELS 3 Zrotation Yrotation Xrotation
					JOINT LeftToe
					{
						OFFSET 0.19847 -0.54529 2.28466
						CHANNELS 3 Zrotation Yrotation Xrotation
						End Site
						{
							OFFSET 0.00000 -0.00000 1.17993
						}
					}
				}
			}
		}
	}
	JOINT RHipJoint
	{
		OFFSET 0 0 0
		CHANNELS 3 Zrotation Yrotation Xrotation
		JOINT RightHip
		{
			OFFSET -1.61527 -1.94743 0.52196
			CHANNELS 3 Zrotation Yrotation Xrotation
			JOINT RightKnee
			{
				OFFSET -2.53829 -6.97390 0.00000
				CHANNELS 3 Zrotation Yrotation Xrotation
				JOINT RightAnkle
				{
					OFFSET -2.80762 -7.71387 0.00000
					CHANNELS 3 Zrotation Yrotation Xrotation
					JOINT RightToe
					{
						OFFSET -0.30536 -0.83898 2.28801
						CHANNELS 3 Zrotation Yrotation Xrotation
						End Site
						{
							OFFSET -0.00000 -0.00000 1.21323
						}
					}
				}
			}
		}
	}
	JOINT lowerback
	{
		OFFSET 0 0 0
		CHANNELS 3 Zrotation Yrotation Xrotation
		JOINT Chest
		{
			OFFSET -0.04381 1.99497 -0.19778
			CHANNELS 3 Zrotation Yrotation Xrotation
			JOINT Chest2
			{
				OFFSET -0.01959 2.01295 -0.04372
				CHANNELS 3 Zrotation Yrotation Xrotation
				JOINT lowerneck
				{
					OFFSET 0 0 0
					CHANNELS 3 Zrotation Yrotation Xrotation
					JOINT Neck
					{
						OFFSET -0.05459 1.76913 0.09708
						CHANNELS 3 Zrotation Yrotation Xrotation
						JOINT Head
						{
							OFFSET 0.09461 1.77368 -0.11172
							CHANNELS 3 Zrotation Yrotation Xrotation
							End Site
							{
								OFFSET 0.03812 1.78157 -0.04834
							}
						}
					}
				}
				JOINT LeftCollar
				{
					OFFSET 0 0 0
					CHANNELS 3 Zrotation Yrotation Xrotation
					JOINT LeftShoulder
					{
						OFFSET 3.50922 1.24034 -0.28866
CHANNELS 3 Zrotation Xrotation Yrotation
						JOINT LeftElbow
						{
OFFSET 0 -5.401880 0.000000
CHANNELS 3 Zrotation Xrotation Yrotation
							JOINT LeftWrist
							{
OFFSET 0 -3.685590 0.000000
CHANNELS 3 Zrotation Xrotation Yrotation
								JOINT lhand
								{
									OFFSET 0 0 0
CHANNELS 3 Zrotation Xrotation Yrotation
									JOINT LFingers
									{
OFFSET 0 -0.617530 0.000000
CHANNELS 3 Zrotation Xrotation Yrotation
										End Site
										{
OFFSET 0 -0.497870 0.000000
										}
									}
								}
								JOINT LThumb
								{
OFFSET 0 0.000000 0.000000
CHANNELS 3 Zrotation Xrotation Yrotation
									End Site
									{
OFFSET 0 -0.505470 0.505470
									}
								}
							}
						}
					}
				}
				JOINT RightCollar
				{
					OFFSET 0 0 0
					CHANNELS 3 Zrotation Yrotation Xrotation
					JOINT RightShoulder
					{
						OFFSET -2.95373 1.39649 -0.27346
CHANNELS 3 Zrotation Xrotation Yrotation
						JOINT RightElbow
						{
OFFSET 0 -6.106700 -0.000000
CHANNELS 3 Zrotation Xrotation Yrotation
							JOINT RightWrist
							{
OFFSET 0 -3.630520 0.000000
CHANNELS 3 Zrotation Xrotation Yrotation
								JOINT rhand
								{
									OFFSET 0 0 0
CHANNELS 3 Zrotation Xrotation Yrotation
									JOINT RFingers
									{
OFFSET 0 -0.583850 0.000000
CHANNELS 3 Zrotation Xrotation Yrotation
										End Site
										{
OFFSET 0 -0.470710 0.000000
										}
									}
								}
								JOINT RThumb
								{
OFFSET 0 0.000000 0.000000
CHANNELS 3 Zrotation Xrotation Yrotation
									End Site
									{
OFFSET 0 -0.477900 0.477900
									}
								}
							}
						}
					}
				}
			}
		}
	}
}
MOTION
Frames: 8
Frame Time: 0.008333333333333333
1.182147 26.334036 1.519126 -0.300744 -4.228026 4.407418 0.000000 0.000000 0.000000 -21.634049 -4.212795 -2.540714 0.749924 5.531216 15.430169 -0.919740 26.692200 12.620321 0.192493 2.824902 7.791649 0.000000 0.000000 0.000000 22.521282 13.931317 -0.350289 -1.289355 -7.194374 20.292839 0.818742 -28.762973 15.361570 -0.121703 -2.248779 6.193830 -0.131164 -0.025281 2.856447 -0.264973 -0.049313 -2.052588 -0.196322 -0.024972 -3.713494 -5.308689 -0.318745 -12.258608 6.287904 -0.015928 2.765999 3.077812 0.179968 3.128846 0.000000 0.000000 0.000000 25.155146 -25.843690 -27.791292 58.170701 -55.793598 32.825531 27.703772 1.849872 -17.759119 0.000000 0.000000 0.000000 -7.125000 0.000000 0.000000 -0.303320 49.866777 0.036792 0.000000 0.000000 0.000000 -29.838637 -32.743535 28.656933 -34.535427 -44.473847 -14.488177 -30.833691 8.843213 -1.330915 0.000000 0.000000 0.000000 7.125000 0.000000 0.000000 -3.306682 28.424418 -1.335469
1.188143 26.478922 1.532984 -0.458109 -3.957210 4.614652 0.000000 0.000000 0.000000 -21.426864 -4.044736 -3.374726 0.790242 5.673246 15.839713 -0.852656 26.404564 12.837716 0.176084 2.698710 7.441221 0.000000 0.000000 0.000000 22.678539 13.943496 -0.636600 -1.248646 -7.084276 19.965525 0.799141 -28.503777 15.249284 -0.113211 -2.168256 5.970993 0.057150 -0.098047 2.707218 -0.145527 -0.133879 -2.096971 -0.174048 -0.070286 -3.675386 -5.309443 -0.311517 -12.250239 6.273836 0.000717 2.596451 3.070517 0.187387 3.067274 0.000000 0.000000 0.000000 24.698517 -25.198771 -27.652041 56.186964 -55.191458 31.191782 27.548571 1.732608 -17.829980 0.000000 0.000000 0.000000 -7.125000 0.000000 0.000000 -0.469735 49.918670 0.056825 0.000000 0.000000 0.000000 -29.396884 -32.163318 28.441577 -33.684878 -43.844670 -13.896112 -30.897601 8.884419 -1.499337 0.000000 0.000000 0.000000 7.125000 0.000000 0.000000 -3.347716 28.226795 -1.368759
1.194613 26.618658 1.546746 -0.684742 -3.742126 4.761148 0.000000 0.000000 0.000000 -21.148460 -3.836377 -4.182491 0.839148 5.842256 16.327874 -0.775680 26.104007 13.119337 0.146759 2.462394 6.785626 0.000000 0.000000 0.000000 22.913360 13.978707 -0.866316 -1.216652 -6.996750 19.705695 0.740852 -28.126804 15.289422 -0.099840 -2.030178 5.589302 0.300698 -0.156412 2.584981 -0.000793 -0.197027 -2.089955 -0.158173 -0.105775 -3.599521 -5.330524 -0.298608 -12.173032 6.262545 0.028798 2.323509 3.065639 0.199284 2.956373 0.000000 0.000000 0.000000 24.274174 -24.549338 -27.499406 54.318885 -54.589241 29.661604 27.346650 1.521297 -17.724190 0.000000 0.000000 0.000000 -7.125000 0.000000 0.000000 -0.651421 49.768609 0.075917 0.000000 0.000000 0.000000 -28.981547 -31.603073 28.248743 -32.923402 -43.269583 -13.370065 -31.116893 8.922750 -1.497589 0.000000 0.000000 0.000000 7.125000 0.000000 0.000000 -3.517683 28.224765 -1.437515
1.204338 26.750681 1.564664 -1.015799 -3.745856 4.873787 0.000000 0.000000 0.000000 -20.784763 -3.567868 -4.960708 0.895768 6.031098 16.875083 -0.721193 25.893250 13.325032 0.110722 2.137932 5.887376 0.000000 0.000000 0.000000 23.227565 14.110930 -1.066282 -1.199533 -6.948990 19.564214 0.604033 -27.518246 15.653851 -0.072596 -1.729429 4.758662 0.676717 -0.142757 2.378554 0.155609 -0.160058 -1.991837 -0.210863 -0.093984 -3.381969 -5.398734 -0.286951 -12.078044 6.304644 0.061837 1.952352 3.086755 0.214938 2.809563 0.000000 0.000000 0.000000 23.935524 -23.916733 -27.345068 52.626498 -53.994938 28.287285 27.067151 1.171456 -17.369886 0.000000 0.000000 0.000000 -7.125000 0.000000 0.000000 -0.864710 49.333373 0.091704 0.000000 0.000000 0.000000 -28.600065 -31.081442 28.020800 -32.339823 -42.814896 -12.971731 -31.399391 9.122449 -1.095725 0.000000 0.000000 0.000000 7.125000 0.000000 0.000000 -3.757017 28.688511 -1.494400
1.214213 26.874495 1.569349 -1.341781 -3.706702 4.770464 0.000000 0.000000 0.000000 -20.424699 -3.312493 -5.530424 0.956118 6.224567 17.438113 -0.613174 25.501155 13.767684 0.083640 1.854264 5.103451 0.000000 0.000000 0.000000 23.577041 14.154101 -1.133417 -1.196941 -6.941726 19.542778 0.427464 -26.881380 16.284938 -0.054158 -1.492858 4.106126 1.063930 -0.145469 2.553556 0.289724 -0.141845 -1.857103 -0.290815 -0.091895 -3.342372 -5.324710 -0.294796 -12.046637 6.212119 0.054479 1.672784 3.034092 0.207955 2.706382 0.000000 0.000000 0.000000 23.664980 -23.258855 -27.239087 51.167587 -53.447498 27.111567 26.867399 0.836341 -17.057521 0.000000 0.000000 0.000000 -7.125000 0.000000 0.000000 -1.006259 48.958433 0.097690 0.000000 0.000000 0.000000 -28.184804 -30.466929 27.736839 -31.910119 -42.474235 -12.680459 -31.498461 9.383242 -0.827339 0.000000 0.000000 0.000000 7.125000 0.000000 0.000000 -3.847499 29.000471 -1.502681
1.224334 26.993728 1.564461 -1.630475 -3.623908 4.536322 0.000000 0.000000 0.000000 -20.100664 -3.110062 -5.963557 1.017472 6.416446 17.998047 -0.477131 25.006863 14.333561 0.065467 1.650422 4.540498 0.000000 0.000000 0.000000 23.909858 14.140390 -1.131776 -1.203674 -6.960441 19.598267 0.234249 -26.238912 17.037340 -0.041011 -1.305932 3.590931 1.408358 -0.170253 2.990454 0.414076 -0.150373 -1.717305 -0.354321 -0.102698 -3.445873 -5.224778 -0.310166 -12.066424 6.084701 0.033495 1.495362 2.966256 0.193955 2.648240 0.000000 0.000000 0.000000 23.417798 -22.569393 -27.156579 49.837641 -52.926364 26.045501 26.737264 0.569549 -16.874385 0.000000 0.000000 0.000000 -7.125000 0.000000 0.000000 -1.101850 48.736777 0.101631 0.000000 0.000000 0.000000 -27.769612 -29.794038 27.462556 -31.544560 -42.180565 -12.434045 -31.462968 9.571812 -0.708507 0.000000 0.000000 0.000000 7.125000 0.000000 0.000000 -3.825919 29.140032 -1.481268
1.235058 27.107433 1.543945 -1.809926 -3.451718 4.125199 0.000000 0.000000 0.000000 -19.883513 -3.056574 -6.194231 1.078021 6.598627 18.532001 -0.310737 24.387447 15.031245 0.065334 1.649289 4.537234 0.000000 0.000000 0.000000 24.154787 14.044670 -1.057172 -1.223923 -7.016794 19.765061 0.031285 -25.608706 17.884765 -0.034950 -1.204683 3.312164 1.609723 -0.245790 3.834682 0.531645 -0.221514 -1.600070 -0.338934 -0.142998 -3.803641 -5.193337 -0.328351 -12.177265 5.990246 0.012713 1.536328 2.928621 0.181965 2.683011 0.000000 0.000000 0.000000 23.171471 -21.809228 -27.095830 48.660757 -52.437239 25.109483 26.737930 0.497276 -17.044510 0.000000 0.000000 0.000000 -7.125000 0.000000 0.000000 -1.130959 48.923155 0.109491 0.000000 0.000000 0.000000 -27.389796 -29.038536 27.276311 -31.215835 -41.912522 -12.213962 -31.205117 9.474959 -0.910072 0.000000 0.000000 0.000000 7.125000 0.000000 0.000000 -3.615095 28.908093 -1.419253
1.243948 27.215931 1.514752 -1.922984 -3.240111 3.669650 0.000000 0.000000 0.000000 -19.730521 -3.337818 -6.255977 1.132720 6.758397 19.002042 -0.205825 23.965816 15.455282 0.068771 1.691641 4.654208 0.000000 0.000000 0.000000 24.360000 14.067898 -0.967990 -1.255924 -7.104136 20.024426 -0.140491 -25.132106 18.650924 -0.032408 -1.161496 3.193301 1.715195 -0.342449 4.834749 0.627000 -0.319379 -1.492107 -0.286806 -0.195247 -4.259681 -5.253129 -0.352783 -12.294155 6.017864 -0.010598 1.621620 2.951625 0.172454 2.736723 0.000000 0.000000 0.000000 22.979684 -21.089869 -27.052583 47.545852 -51.950643 24.229196 26.901723 0.616987 -17.418171 0.000000 0.000000 0.000000 -7.125000 0.000000 0.000000 -1.036756 49.359131 0.110459 0.000000 0.000000 0.000000 -27.051976 -28.411800 27.197909 -30.705241 -41.487501 -11.875129 -31.151348 9.234416 -0.986143 0.000000 0.000000 0.000000 7.125000 0.000000 0.000000 -3.569480 28.819992 -1.409152
